<svg xmlns="http://www.w3.org/2000/svg" viewBox="0 0 360 110" width="360" height="110" role="img" aria-label="SOCAR Georgia Petroleum">
  <g transform="translate(8,12)">
    <path d="M30,0 C30,16 14,28 14,46 C14,62 22,76 36,76 C28,68 26,58 30,48 C34,38 38,28 30,0 Z" fill="#0099D8"></path>
    <path d="M44,0 C44,16 28,28 28,46 C28,62 36,76 50,76 C42,68 40,58 44,48 C48,38 52,28 44,0 Z" fill="#00A551"></path>
    <path d="M58,0 C58,16 42,28 42,46 C42,62 50,76 64,76 C56,68 54,58 58,48 C62,38 66,28 58,0 Z" fill="#E2231A"></path>
  </g>
  <text x="92" y="56" font-family="&#39;Inter Tight&#39;, Inter, system-ui, sans-serif" font-weight="800" font-size="40" letter-spacing="1.5" fill="#0A0A0A">SOCAR</text>
  <text x="93" y="82" font-family="Inter, system-ui, sans-serif" font-weight="500" font-size="14" letter-spacing="2.6" fill="#6B7177">GEORGIA  PETROLEUM</text>
</svg>